<?xml version="1.0" encoding="utf-8"?>
<!-- Generator: Adobe Illustrator 27.0.1, SVG Export Plug-In . SVG Version: 6.00 Build 0)  -->
<svg version="1.1" id="Layer_1" xmlns="http://www.w3.org/2000/svg" xmlns:xlink="http://www.w3.org/1999/xlink" x="0px" y="0px"
	 viewBox="0 0 512 512" style="enable-background:new 0 0 512 512;" xml:space="preserve">
<style type="text/css">
	.st0{fill:#FF366B;}
	.st1{fill:#19415E;}
</style>
<g>
	<g>
		<path class="st0" d="M355,210.1c-8.9-8.9-23.2-8.9-32.1,0L258,274.9c-3.2-0.8-6.5-1.2-10-1.2c-23.8,0-43.3,19.4-43.3,43.4
			c0,23.9,19.4,43.4,43.3,43.4s43.4-19.4,43.4-43.4c0-3.4-0.4-6.7-1.2-10l64.8-64.8C363.9,233.4,363.9,219,355,210.1z"/>
	</g>
</g>
<g>
	<g>
		<path class="st1" d="M432.8,123.3c-97.5-97.5-256.2-97.5-353.7,0c-84.1,84.2-97.2,217.1-31,315.9c7,10.4,21.1,13.2,31.5,6.2
			s13.2-21.1,6.3-31.5c-18.7-27.7-29.6-58.8-33.1-90.4h21.4c12.6,0,22.8-10.2,22.8-22.8s-10.2-22.8-22.8-22.8H52.7
			c4.1-37.7,18.7-74.4,43.2-105.3l15.4,15.4c4.4,4.4,10.3,6.6,16.1,6.6c5.9,0,11.6-2.2,16.1-6.6c8.9-8.9,8.9-23.2,0-32.1L128,140.4
			c31.3-25.1,68.4-39.7,106.3-43.8v21.5c0,12.6,10.2,22.8,22.8,22.8s22.8-10.2,22.8-22.8V97c37.3,4.3,73.6,18.8,104.4,43.6
			l-15.5,15.5c-8.9,8.9-8.9,23.2,0,32.1c4.4,4.4,10.3,6.6,16.1,6.6s11.6-2.2,16.1-6.6l15.4-15.4c24.5,30.9,39.1,67.5,43.2,105.3
			h-21.5c-12.6,0-22.8,10.2-22.8,22.8s10.2,22.8,22.8,22.8h21.4c-3.6,31.6-14.6,62.7-33.1,90.4c-7,10.4-4.2,24.5,6.2,31.5
			c3.9,2.6,8.3,3.8,12.6,3.8c7.3,0,14.6-3.5,18.9-10.1C530.1,340.4,517,207.5,432.8,123.3z"/>
	</g>
</g>
<g>
	<g>
		<path class="st0" d="M358.4,416.3H153.5c-12.6,0-22.8,10.2-22.8,22.8s10.2,22.8,22.8,22.8h205c12.6,0,22.8-10.2,22.8-22.8
			C381.2,426.5,371,416.3,358.4,416.3z"/>
	</g>
</g>
</svg>
