<?xml version="1.0" encoding="utf-8"?>
<!-- Generator: Adobe Illustrator 27.0.1, SVG Export Plug-In . SVG Version: 6.00 Build 0)  -->
<svg version="1.1" id="Layer_1" xmlns="http://www.w3.org/2000/svg" xmlns:xlink="http://www.w3.org/1999/xlink" x="0px" y="0px"
	 viewBox="0 0 512 512" style="enable-background:new 0 0 512 512;" xml:space="preserve">
<style type="text/css">
	.st0{fill:#FF366B;}
	.st1{fill:#19415E;}
</style>
<g>
	<g>
		<g>
			<path class="st0" d="M368.9,335.6H159.1c-12.9,0-23.3,10.4-23.3,23.3s10.4,23.3,23.3,23.3H369c12.9,0,23.3-10.4,23.3-23.3
				C392.2,346,381.8,335.6,368.9,335.6z"/>
		</g>
	</g>
</g>
<g>
	<path class="st1" d="M430.2,452.3H97.8c-11.2,0-21.7-4.6-28.9-12.6c-6.7-7.4-10-17.3-9-27.1v-0.2l27.2-241.8
		C89,152,105.3,138,125,138h278c19.7,0,35.9,14,37.9,32.5l27.2,242.1c1,9.8-2.3,19.6-9,27.1C451.9,447.7,441.4,452.3,430.2,452.3z
		 M105.7,407.3h316.5L397.1,183H130.9L105.7,407.3z"/>
</g>
<g>
	<path class="st1" d="M343.5,138.5h-45c0-19-15.5-34.5-34.5-34.5s-34.5,15.5-34.5,34.5h-45c0-43.8,35.7-79.5,79.5-79.5
		C307.8,58.9,343.5,94.6,343.5,138.5z"/>
</g>
</svg>
